<svg xmlns="http://www.w3.org/2000/svg" viewBox="0 0 400 400" width="400" height="400">
  <rect width="400" height="400" fill="white"/>

  <!-- Thread 1: top-left sweep -->
  <path d="M60 80C60 80 120 160 180 200C220 220 260 200 320 180C340 170 350 160 350 150"
        stroke="#1E3A5F" stroke-width="12" stroke-linecap="round" fill="none"/>

  <!-- Thread 2: top-right sweep -->
  <path d="M340 80C340 80 280 160 220 200C180 220 140 200 80 180C60 170 50 160 50 150"
        stroke="#0EA5E9" stroke-width="12" stroke-linecap="round" fill="none"/>

  <!-- Thread 3: horizontal -->
  <path d="M60 250C110 230 170 215 230 220C290 225 330 240 340 250"
        stroke="#06B6D4" stroke-width="12" stroke-linecap="round" fill="none"/>

  <!-- Thread 4: vertical -->
  <path d="M200 340C200 300 195 260 200 200C205 140 200 170 200 60"
        stroke="#1E3A5F" stroke-width="12" stroke-linecap="round" fill="none"/>

  <!-- Center node -->
  <circle cx="200" cy="200" r="10" fill="#0EA5E9"/>
  <circle cx="200" cy="200" r="5" fill="white"/>

  <!-- Peripheral nodes -->
  <circle cx="120" cy="175" r="5" fill="#1E3A5F"/>
  <circle cx="280" cy="175" r="5" fill="#06B6D4"/>
  <circle cx="200" cy="280" r="5" fill="#0EA5E9"/>
  <circle cx="200" cy="110" r="5" fill="#1E3A5F"/>
</svg>
